<?xml version="1.0" encoding="UTF-8"?>
<svg version="1.1" xmlns="http://www.w3.org/2000/svg" width="32" height="32">
<path d="M0 0 C0.66 0 1.32 0 2 0 C2.99 2.97 3.98 5.94 5 9 C5.99 8.34 6.98 7.68 8 7 C8.99 7 9.98 7 11 7 C10.125 12.75 10.125 12.75 9 15 C11.97 15.495 11.97 15.495 15 16 C15 16.99 15 17.98 15 19 C13.02 19.66 11.04 20.32 9 21 C9.66 21.99 10.32 22.98 11 24 C11 25.32 11 26.64 11 28 C6.125 27.125 6.125 27.125 5 26 C4.01 27.98 3.02 29.96 2 32 C1.34 32 0.68 32 0 32 C-0.99 30.02 -1.98 28.04 -3 26 C-3.99 26.66 -4.98 27.32 -6 28 C-6.99 28 -7.98 28 -9 28 C-8.125 22.125 -8.125 22.125 -7 21 C-8.98 20.01 -10.96 19.02 -13 18 C-13 17.34 -13 16.68 -13 16 C-11.35 15.34 -9.7 14.68 -8 14 C-8.33 11.69 -8.66 9.38 -9 7 C-4.125 7.875 -4.125 7.875 -3 9 C-2.01 6.03 -1.02 3.06 0 0 Z M0 13 C-0.33 14.65 -0.66 16.3 -1 18 C0.32 18 1.64 18 3 18 C2.67 16.35 2.34 14.7 2 13 C1.34 13 0.68 13 0 13 Z " fill="#F79633" transform="translate(15,0)"/>
</svg>
